<?xml version="1.0" standalone="no"?>
<svg xmlns="http://www.w3.org/2000/svg" viewBox="0 0 163.969 36" width="163.969" height="36"><g fill="#6a8bff" color="#6a8bff" transform="translate(0 6) scale(0.5)"><svg width="44.0" height="48.0" x="0.0" y="0.0" viewBox="0 0 44 48"><path fill="currentColor" fill-rule="evenodd" d="M26.592 7.876c-1.442 3.958-2.352 9.744-2.352 16.195 0 6.393.894 12.136 2.311 16.09-.691.939-1.454 1.46-2.256 1.46-3.13-.003-5.665-7.895-5.665-17.634 0-9.734 2.535-17.63 5.661-17.63.82.001 1.599.546 2.3 1.52M37.084 24.07c.003 6.693-1.663 12.123-3.716 12.123s-3.717-5.43-3.717-12.121c0-6.696 1.664-12.124 3.717-12.127 2.056.003 3.719 5.43 3.716 12.125M21.51 0c2.12.002 4.037 2.67 5.43 6.98 1.172-2.82 2.642-4.504 4.238-4.504 3.83-.005 6.936 9.668 6.934 21.594.002 11.926-3.106 21.597-6.937 21.596-1.607 0-3.089-1.711-4.265-4.573-1.389 4.256-3.296 6.882-5.397 6.884-4.257-.002-7.708-10.74-7.708-23.99C13.805 10.745 17.257 0 21.51 0zm-6.145 2.36c-5.194 4.504-8.651 12.467-8.651 21.535 0 9.067 3.455 17.03 8.655 21.531C6.292 41.661-.003 33.435 0 23.894 0 14.356 6.292 6.129 15.365 2.361zm26.647 14.91c1.098 0 1.986 2.9 1.988 6.483-.002 3.577-.891 6.48-1.99 6.48-1.096 0-1.985-2.9-1.987-6.482-.002-3.58.891-6.482 1.99-6.482z"></path></svg></g><path fill="#5e24c3" fill-rule="nonzero" d="M0 22.25L0 2.24L7.42 2.24L7.42 4.63L3.04 4.63L3.04 10.62L6.42 10.62L6.42 13.01L3.04 13.01L3.04 19.86L7.54 19.86L7.54 22.25L0 22.25ZM9.73 22.25L9.73 2.24L13.69 2.24L15.61 9.98Q15.91 11.27 16.09 12.44Q16.27 13.61 16.43 14.64L16.43 14.64L16.52 14.64Q16.69 13.61 16.86 12.44Q17.04 11.27 17.34 9.98L17.34 9.98L19.32 2.24L23.20 2.24L23.20 22.25L20.37 22.25L20.37 15.63Q20.37 14.11 20.40 12.70Q20.43 11.30 20.47 10.12Q20.52 8.94 20.58 8.04Q20.64 7.14 20.68 6.61L20.68 6.61L20.46 6.61L17.44 19.68L15.52 19.68L12.47 6.61L12.25 6.61Q12.29 7.14 12.35 8.04Q12.41 8.94 12.46 10.12Q12.50 11.30 12.53 12.70Q12.56 14.11 12.56 15.63L12.56 15.63L12.56 22.25L9.73 22.25ZM26.63 22.25L26.63 2.24L29.92 2.24Q30.48 2.24 31.15 2.29Q31.83 2.33 32.50 2.51Q33.18 2.70 33.80 3.06Q34.43 3.42 34.92 4.05Q35.40 4.69 35.70 5.64Q35.99 6.60 35.99 7.96L35.99 7.96L35.99 8.46Q35.99 10.75 35.33 12.18Q34.68 13.62 33.40 14.25L33.40 14.25L36.61 22.25L33.40 22.25L30.74 14.77L29.60 14.77L29.60 22.25L26.63 22.25ZM29.60 12.57L30.06 12.57Q30.86 12.57 31.41 12.40Q31.96 12.22 32.30 11.81Q32.64 11.39 32.79 10.71Q32.94 10.02 32.94 9.01L32.94 9.01L32.94 7.43Q32.94 6.66 32.80 6.09Q32.66 5.53 32.33 5.17Q31.99 4.80 31.44 4.63Q30.89 4.45 30.06 4.45L30.06 4.45L29.60 4.45L29.60 12.57ZM38.91 22.25L38.91 2.24L41.94 2.24L41.94 22.25L38.91 22.25ZM49.68 22.43L49.68 22.43Q49.21 22.43 48.66 22.35Q48.12 22.28 47.57 22.03Q47.03 21.79 46.53 21.33Q46.03 20.88 45.65 20.14Q45.27 19.41 45.04 18.32Q44.81 17.24 44.81 15.74L44.81 15.74L44.81 8.65Q44.81 7.14 45.05 6.06Q45.28 4.99 45.67 4.26Q46.05 3.53 46.56 3.09Q47.06 2.66 47.60 2.43Q48.14 2.20 48.67 2.13Q49.21 2.06 49.66 2.06L49.66 2.06Q50.86 2.06 51.66 2.40Q52.46 2.73 52.95 3.31Q53.44 3.89 53.64 4.66Q53.85 5.44 53.85 6.30L53.85 6.30Q53.85 6.95 53.78 7.49Q53.72 8.04 53.59 8.70L53.59 8.70L51.13 8.70L51.13 7.68Q51.13 6.02 50.77 5.20Q50.40 4.38 49.70 4.38L49.70 4.38Q49.28 4.38 48.96 4.55Q48.64 4.71 48.43 5.10Q48.22 5.50 48.11 6.14Q48 6.79 48 7.75L48 7.75L48 16.89Q48 17.82 48.09 18.45Q48.18 19.07 48.38 19.44Q48.57 19.82 48.90 19.97Q49.22 20.13 49.68 20.13L49.68 20.13Q49.97 20.13 50.24 20.00Q50.51 19.86 50.71 19.58Q50.92 19.29 51.04 18.85Q51.16 18.41 51.16 17.81L51.16 17.81L51.16 15.86L53.94 15.86L53.94 17.71Q53.94 20.12 52.84 21.27Q51.74 22.42 49.68 22.43ZM56.33 22.25L56.33 2.24L59.37 2.24L59.37 10.62L62.96 10.62L62.96 2.24L66 2.24L66 22.25L62.96 22.25L62.96 13.01L59.37 13.01L59.37 22.25L56.33 22.25ZM74.58 22.25L74.58 2.24L77.73 2.24Q78.45 2.24 79.21 2.28Q79.98 2.32 80.71 2.53Q81.45 2.74 82.10 3.18Q82.75 3.62 83.24 4.41Q83.73 5.20 84.02 6.40Q84.30 7.61 84.30 9.34L84.30 9.34L84.30 15.15Q84.30 16.89 84.02 18.09Q83.73 19.30 83.24 20.09Q82.75 20.87 82.10 21.31Q81.45 21.75 80.71 21.96Q79.98 22.17 79.21 22.21Q78.45 22.25 77.73 22.25L77.73 22.25L74.58 22.25ZM77.61 20.13L78.39 20.13Q79.21 20.13 79.74 19.92Q80.27 19.71 80.58 19.18Q80.89 18.64 81.01 17.72Q81.13 16.80 81.13 15.40L81.13 15.40L81.13 9.19Q81.13 7.78 81.01 6.86Q80.89 5.94 80.58 5.41Q80.27 4.88 79.74 4.66Q79.21 4.45 78.39 4.45L78.39 4.45L77.61 4.45L77.61 20.13ZM90.71 22.43L90.71 22.43Q89.67 22.43 88.87 22.04Q88.07 21.66 87.52 20.84Q86.96 20.02 86.68 18.73Q86.40 17.45 86.40 15.64L86.40 15.64L86.40 12.60Q86.40 11.06 86.63 9.97Q86.86 8.87 87.23 8.13Q87.60 7.38 88.08 6.95Q88.57 6.52 89.09 6.29Q89.60 6.06 90.11 5.99Q90.62 5.93 91.05 5.93L91.05 5.93Q91.85 5.93 92.59 6.17Q93.33 6.41 93.89 6.99Q94.45 7.57 94.79 8.54Q95.12 9.52 95.12 10.97L95.12 10.97Q95.12 11.46 95.09 11.96Q95.06 12.47 95.02 12.96Q94.97 13.44 94.89 13.90Q94.82 14.36 94.73 14.74L94.73 14.74L89.38 14.74L89.38 16.38Q89.38 17.44 89.46 18.16Q89.54 18.88 89.74 19.32Q89.93 19.76 90.26 19.95Q90.60 20.14 91.10 20.14L91.10 20.14Q91.37 20.14 91.63 20.03Q91.89 19.92 92.08 19.66Q92.27 19.41 92.39 18.98Q92.51 18.55 92.51 17.92L92.51 17.92L92.51 17.41L94.98 17.41L94.98 18.04Q94.98 20.33 93.88 21.38Q92.79 22.43 90.71 22.43ZM89.38 12.75L92.36 12.75Q92.37 12.62 92.38 12.40Q92.39 12.19 92.40 11.95Q92.40 11.72 92.40 11.49Q92.40 11.26 92.40 11.10L92.40 11.10Q92.40 9.50 92.03 8.80Q91.65 8.10 90.91 8.10L90.91 8.10Q90.53 8.10 90.23 8.28Q89.94 8.46 89.75 8.89Q89.57 9.32 89.47 10.02Q89.38 10.72 89.38 11.77L89.38 11.77L89.38 12.75ZM97.00 18.88L97.00 18.88Q97.00 18.35 97.10 17.86Q97.20 17.37 97.29 17.07L97.29 17.07L99.38 17.07Q99.38 17.95 99.46 18.54Q99.55 19.14 99.75 19.49Q99.95 19.84 100.28 19.99Q100.62 20.14 101.10 20.14L101.10 20.14Q101.77 20.14 102.07 19.77Q102.38 19.39 102.38 18.90L102.38 18.90Q102.38 18.64 102.30 18.41Q102.23 18.18 102.11 17.94Q101.98 17.70 101.79 17.45Q101.60 17.20 101.37 16.91L101.37 16.91L99.20 14.36Q98.78 13.83 98.38 13.28Q97.99 12.74 97.69 12.16Q97.39 11.58 97.21 10.95Q97.03 10.31 97.03 9.61L97.03 9.61Q97.03 8.67 97.35 7.98Q97.68 7.29 98.22 6.83Q98.77 6.38 99.48 6.15Q100.20 5.93 100.99 5.93L100.99 5.93Q101.87 5.93 102.57 6.14Q103.28 6.35 103.78 6.77Q104.29 7.20 104.55 7.82Q104.82 8.45 104.82 9.28L104.82 9.28Q104.82 9.84 104.72 10.37Q104.63 10.90 104.53 11.27L104.53 11.27L102.48 11.27Q102.47 10.48 102.41 9.88Q102.35 9.28 102.19 8.89Q102.04 8.50 101.76 8.30Q101.48 8.10 101.04 8.10L101.04 8.10Q100.65 8.10 100.39 8.22Q100.14 8.34 99.98 8.54Q99.82 8.74 99.76 8.99Q99.69 9.23 99.69 9.49L99.69 9.49Q99.69 10.05 99.96 10.54Q100.23 11.02 100.68 11.58L100.68 11.58L103.04 14.36Q103.30 14.67 103.64 15.12Q103.98 15.57 104.29 16.12Q104.59 16.66 104.80 17.31Q105.01 17.95 105.01 18.66L105.01 18.66Q105.01 19.51 104.74 20.21Q104.47 20.91 103.95 21.40Q103.42 21.89 102.65 22.16Q101.88 22.43 100.90 22.43L100.90 22.43Q100.09 22.43 99.38 22.25Q98.66 22.07 98.13 21.65Q97.61 21.23 97.30 20.55Q97.00 19.88 97.00 18.88ZM108.93 3.81L108.93 3.81Q108.11 3.81 107.63 3.32Q107.16 2.82 107.16 1.88L107.16 1.88Q107.16 1.35 107.28 0.99Q107.40 0.63 107.63 0.42Q107.86 0.20 108.19 0.10Q108.52 0 108.94 0L108.94 0Q109.82 0 110.27 0.45Q110.73 0.89 110.73 1.88L110.73 1.88Q110.73 2.79 110.27 3.30Q109.80 3.81 108.93 3.81ZM107.39 22.25L107.39 6.12L110.36 6.12L110.36 22.25L107.39 22.25ZM113.77 23.36L115.86 23.36Q115.86 24.40 116.25 24.83Q116.64 25.27 117.45 25.27L117.45 25.27Q117.77 25.27 118.08 25.17Q118.38 25.07 118.61 24.80Q118.84 24.54 118.98 24.07Q119.12 23.60 119.12 22.86L119.12 22.86L119.12 20.32Q118.72 20.84 118.10 21.21Q117.47 21.57 116.54 21.57L116.54 21.57Q116.27 21.57 115.91 21.52Q115.55 21.47 115.16 21.28Q114.77 21.09 114.40 20.71Q114.02 20.33 113.73 19.69Q113.44 19.04 113.26 18.08Q113.07 17.11 113.07 15.74L113.07 15.74L113.07 11.50Q113.07 10.18 113.26 9.26Q113.44 8.34 113.73 7.72Q114.02 7.10 114.40 6.75Q114.79 6.40 115.18 6.22Q115.57 6.04 115.95 5.99Q116.32 5.94 116.61 5.94L116.61 5.94Q117.20 5.94 117.65 6.09Q118.10 6.25 118.44 6.50Q118.77 6.75 119.00 7.07Q119.24 7.38 119.40 7.70L119.40 7.70L119.67 6.11L121.98 6.11L121.98 21.60Q121.98 22.95 121.72 24.03Q121.46 25.11 120.91 25.88Q120.36 26.65 119.51 27.06Q118.66 27.47 117.48 27.47L117.48 27.47Q116.68 27.47 115.98 27.33Q115.28 27.19 114.75 26.83Q114.22 26.47 113.92 25.86Q113.61 25.24 113.61 24.29L113.61 24.29Q113.61 24.13 113.65 23.88Q113.68 23.64 113.77 23.36L113.77 23.36ZM117.55 19.28L117.55 19.28Q117.84 19.28 118.07 19.18Q118.30 19.08 118.48 18.91Q118.66 18.75 118.80 18.54Q118.93 18.33 119.03 18.11L119.03 18.11L119.03 9.28Q118.80 8.79 118.44 8.44Q118.07 8.10 117.54 8.10L117.54 8.10Q117.21 8.10 116.94 8.21Q116.67 8.33 116.47 8.65Q116.27 8.98 116.16 9.54Q116.05 10.11 116.05 11.02L116.05 11.02L116.05 16.32Q116.05 17.23 116.16 17.80Q116.27 18.38 116.47 18.70Q116.67 19.03 116.95 19.15Q117.22 19.28 117.55 19.28ZM125.09 22.25L125.09 6.12L127.37 6.12L127.64 7.84L127.64 7.85Q127.99 7.30 128.40 6.93Q128.80 6.56 129.23 6.34Q129.67 6.12 130.12 6.02Q130.57 5.93 131.02 5.93L131.02 5.93Q132.43 5.93 133.20 6.92Q133.97 7.91 133.97 9.89L133.97 9.89L133.97 22.25L131.00 22.25L131.00 10.00Q131.00 8.93 130.68 8.51Q130.35 8.10 129.71 8.10L129.71 8.10Q129.27 8.10 128.83 8.39Q128.39 8.68 128.05 9.20L128.05 9.20L128.05 22.25L125.09 22.25Z" transform="translate(30, 6.874)"></path></svg>